<?xml version="1.0" encoding="UTF-8" standalone="no"?>
<!-- Created with Inkscape (http://www.inkscape.org/) -->

<svg
   width="200.367mm"
   height="100mm"
   viewBox="0 0 200.36701 100"
   version="1.1"
   id="svg5"
   sodipodi:docname="MCDiagram.svg"
   inkscape:version="1.2.1 (9c6d41e4, 2022-07-14)"
   inkscape:export-filename="MCDiagram.png"
   inkscape:export-xdpi="96"
   inkscape:export-ydpi="96"
   xmlns:inkscape="http://www.inkscape.org/namespaces/inkscape"
   xmlns:sodipodi="http://sodipodi.sourceforge.net/DTD/sodipodi-0.dtd"
   xmlns="http://www.w3.org/2000/svg"
   xmlns:svg="http://www.w3.org/2000/svg">
  <sodipodi:namedview
     id="namedview7"
     pagecolor="#ffffff"
     bordercolor="#000000"
     borderopacity="0.25"
     inkscape:showpageshadow="2"
     inkscape:pageopacity="0.0"
     inkscape:pagecheckerboard="0"
     inkscape:deskcolor="#d1d1d1"
     inkscape:document-units="mm"
     showgrid="false"
     inkscape:zoom="0.75083164"
     inkscape:cx="339.62341"
     inkscape:cy="101.88702"
     inkscape:window-width="1478"
     inkscape:window-height="831"
     inkscape:window-x="372"
     inkscape:window-y="138"
     inkscape:window-maximized="0"
     inkscape:current-layer="layer1" />
  <defs
     id="defs2">
    <marker
       style="overflow:visible"
       id="Stop"
       refX="0"
       refY="0"
       orient="auto-start-reverse"
       inkscape:stockid="Stop"
       markerWidth="1"
       markerHeight="8"
       viewBox="0 0 1 8"
       inkscape:isstock="true"
       inkscape:collect="always"
       preserveAspectRatio="xMidYMid">
      <path
         style="fill:none;stroke:context-stroke;stroke-width:1"
         d="M 0,4 V -4"
         id="path171" />
    </marker>
    <marker
       style="overflow:visible"
       id="Arrow3"
       refX="0"
       refY="0"
       orient="auto-start-reverse"
       inkscape:stockid="Arrow3"
       markerWidth="4.2071066"
       markerHeight="6.9999995"
       viewBox="0 0 4.2071068 7"
       inkscape:isstock="true"
       inkscape:collect="always"
       preserveAspectRatio="xMidYMid">
      <path
         style="fill:none;stroke:context-stroke;stroke-width:1;stroke-linecap:round"
         d="M 3,-3 0,0 3,3"
         id="arrow3"
         transform="rotate(180,0.125,0)"
         sodipodi:nodetypes="ccc" />
    </marker>
    <marker
       style="overflow:visible"
       id="Arrow3-5"
       refX="0"
       refY="0"
       orient="auto-start-reverse"
       inkscape:stockid="Arrow3"
       markerWidth="4.2071066"
       markerHeight="6.9999995"
       viewBox="0 0 4.2071068 7"
       inkscape:isstock="true"
       inkscape:collect="always"
       preserveAspectRatio="xMidYMid">
      <path
         style="fill:none;stroke:context-stroke;stroke-width:1;stroke-linecap:round"
         d="M 3,-3 0,0 3,3"
         id="arrow3-8"
         transform="rotate(180,0.125,0)"
         sodipodi:nodetypes="ccc" />
    </marker>
    <marker
       style="overflow:visible"
       id="Stop-4"
       refX="0"
       refY="0"
       orient="auto-start-reverse"
       inkscape:stockid="Stop"
       markerWidth="1"
       markerHeight="8"
       viewBox="0 0 1 8"
       inkscape:isstock="true"
       inkscape:collect="always"
       preserveAspectRatio="xMidYMid">
      <path
         style="fill:none;stroke:context-stroke;stroke-width:1"
         d="M 0,4 V -4"
         id="path171-8" />
    </marker>
  </defs>
  <g
     inkscape:label="Layer 1"
     inkscape:groupmode="layer"
     id="layer1"
     transform="translate(62.714931,-103.65399)">
    <path
       style="fill:none;stroke:#000000;stroke-width:1;stroke-dasharray:none;stroke-opacity:1"
       d="m 89.735327,138.10876 c 10.295923,-0.62057 12.915993,-1.24114 3.0338,-1.86171 -9.88215,-0.62056 -17.53183,-1.24112 -8.85765,-1.86169 8.6743,-0.62055 20.738763,-1.24116 13.96957,-1.86171 -6.76918,-0.62056 -22.27885,-1.24111 -17.95866,-1.86166 4.32,-0.62062 22.028403,-1.24117 20.504603,-1.86172 -1.523823,-0.62055 -20.007673,-1.2411 -21.402663,-1.86172 -1.395,-0.62056 6.26318,-0.75273 10.57842,-1.0477"
       title="sin(x)"
       id="path526"
       sodipodi:nodetypes="cscscscc" />
    <path
       style="fill:none;stroke:#000000;stroke-width:1;stroke-dasharray:none;stroke-opacity:1"
       d="m 90.007337,150.30889 c 10.295923,-0.62056 12.915993,-1.24114 3.0338,-1.86171 -9.88214,-0.62056 -17.53182,-1.24112 -8.85765,-1.86169 8.67431,-0.62055 20.738753,-1.24116 13.96958,-1.86171 -6.76918,-0.62055 -22.27886,-1.24111 -17.95867,-1.86166 4.32001,-0.62062 22.028413,-1.24117 20.504603,-1.86172 -1.523823,-0.62055 -20.007663,-1.24111 -21.402663,-1.86172 -1.395,-0.62056 6.26319,-0.75273 10.57842,-1.04771"
       title="sin(x)"
       id="path526-1"
       sodipodi:nodetypes="cscscscc" />
    <path
       style="fill:none;stroke:#000000;stroke-width:1;stroke-dasharray:none;stroke-opacity:1"
       d="m 90.293117,162.56588 c 10.295923,-0.62057 12.915993,-1.24114 3.0338,-1.86171 -9.88215,-0.62056 -17.53183,-1.24112 -8.85765,-1.86169 8.6743,-0.62055 20.738753,-1.24116 13.96957,-1.86171 -6.76918,-0.62055 -22.27885,-1.24111 -17.95867,-1.86166 4.32001,-0.62062 22.028413,-1.24117 20.504603,-1.86172 -1.523813,-0.62055 -20.007663,-1.24111 -21.402663,-1.86172 -1.39499,-0.62056 6.26319,-0.75273 10.57843,-1.04771"
       title="sin(x)"
       id="path526-3"
       sodipodi:nodetypes="cscscscc" />
    <path
       style="fill:none;stroke:#000000;stroke-width:1;stroke-dasharray:none;stroke-opacity:1"
       d="m 90.565127,174.766 c 10.295923,-0.62056 12.915993,-1.24113 3.0338,-1.8617 -9.88214,-0.62056 -17.53183,-1.24113 -8.85765,-1.86169 8.67431,-0.62055 20.738753,-1.24116 13.96958,-1.86171 -6.76918,-0.62056 -22.27886,-1.24111 -17.95867,-1.86167 4.32001,-0.62061 22.028413,-1.24116 20.504603,-1.86171 -1.523823,-0.62055 -20.007663,-1.2411 -21.402663,-1.86172 -1.395,-0.62056 6.26319,-0.75273 10.57842,-1.04771"
       title="sin(x)"
       id="path526-1-5"
       sodipodi:nodetypes="cscscscc" />
    <path
       style="fill:none;stroke:#000000;stroke-width:1;stroke-dasharray:1, 1;stroke-dashoffset:0;stroke-opacity:1"
       d="m 196.8824,139.44932 c 10.29592,-0.62057 12.91599,-1.24114 3.0338,-1.86171 -9.88215,-0.62056 -17.53183,-1.24112 -8.85765,-1.86169 8.67431,-0.62055 20.73876,-1.24116 13.96958,-1.86172 -6.76918,-0.62055 -22.27886,-1.2411 -17.95867,-1.86165 4.32001,-0.62062 22.0284,-1.24117 20.5046,-1.86173 -1.52382,-0.62055 -20.00766,-1.2411 -21.40266,-1.86171 -1.395,-0.62056 6.26319,-0.75273 10.57842,-1.0477"
       title="sin(x)"
       id="path526-4"
       sodipodi:nodetypes="cscscscc" />
    <path
       style="fill:none;stroke:#000000;stroke-width:1;stroke-dasharray:1, 1;stroke-dashoffset:0;stroke-opacity:1"
       d="m 197.15441,151.64945 c 10.29592,-0.62057 12.916,-1.24114 3.03381,-1.86171 -9.88215,-0.62056 -17.53183,-1.24112 -8.85765,-1.86169 8.6743,-0.62055 20.73874,-1.24116 13.96957,-1.86171 -6.76918,-0.62056 -22.27885,-1.24111 -17.95867,-1.86166 4.32001,-0.62062 22.02841,-1.24117 20.5046,-1.86173 -1.52381,-0.62055 -20.00766,-1.2411 -21.40266,-1.86171 -1.395,-0.62056 6.26319,-0.75273 10.57842,-1.04771"
       title="sin(x)"
       id="path526-1-3"
       sodipodi:nodetypes="cscscscc" />
    <path
       style="fill:none;stroke:#000000;stroke-width:1;stroke-dasharray:1, 1;stroke-dashoffset:0;stroke-opacity:1"
       d="m 197.44019,163.90644 c 10.29592,-0.62057 12.91599,-1.24114 3.0338,-1.86171 -9.88215,-0.62056 -17.53183,-1.24112 -8.85765,-1.86169 8.67431,-0.62055 20.73875,-1.24116 13.96958,-1.86172 -6.76919,-0.62055 -22.27886,-1.2411 -17.95867,-1.86165 4.32,-0.62062 22.0284,-1.24117 20.5046,-1.86173 -1.52382,-0.62055 -20.00766,-1.2411 -21.40266,-1.86171 -1.395,-0.62056 6.26319,-0.75273 10.57842,-1.04771"
       title="sin(x)"
       id="path526-3-6"
       sodipodi:nodetypes="cscscscc" />
    <path
       style="fill:none;stroke:#000000;stroke-width:1;stroke-dasharray:1, 1;stroke-dashoffset:0;stroke-opacity:1"
       d="m 197.7122,176.10656 c 10.29592,-0.62056 12.91599,-1.24113 3.03381,-1.8617 -9.88215,-0.62056 -17.53183,-1.24113 -8.85766,-1.86169 8.67431,-0.62055 20.73875,-1.24117 13.96958,-1.86172 -6.76918,-0.62055 -22.27885,-1.2411 -17.95867,-1.86166 4.32001,-0.62061 22.02841,-1.24117 20.5046,-1.86171 -1.52381,-0.62056 -20.00766,-1.24111 -21.40266,-1.86172 -1.395,-0.62056 6.26319,-0.75273 10.57842,-1.04771"
       title="sin(x)"
       id="path526-1-5-5"
       sodipodi:nodetypes="cscscscc" />
    <path
       style="fill:none;stroke:#000000;stroke-width:1;stroke-dasharray:1, 1;stroke-dashoffset:0;stroke-opacity:1"
       d="m 89.043697,125.75507 c 29.088743,-3.22459 75.214813,52.84527 108.968343,50.43992"
       id="path1456"
       sodipodi:nodetypes="cc" />
    <path
       style="fill:none;stroke:#000000;stroke-width:1;stroke-dasharray:1, 1;stroke-dashoffset:0;stroke-opacity:1"
       d="m -124.30601,122.8384 c 29.088741,-3.22459 75.214811,52.84527 108.968341,50.43992"
       id="path1456-4"
       sodipodi:nodetypes="cc" />
    <path
       style="fill:none;stroke:#000000;stroke-width:1;stroke-dasharray:1, 1;stroke-dashoffset:0;stroke-opacity:1"
       d="m -17.21429,136.72174 c 10.2959201,-0.62057 12.9159901,-1.24114 3.0338,-1.86171 -9.88215,-0.62056 -17.53183,-1.24112 -8.85765,-1.86169 8.6743,-0.62055 20.7387601,-1.24116 13.9695701,-1.86171 -6.7691801,-0.62056 -22.2788501,-1.24111 -17.9586601,-1.86166 4.32,-0.62062 22.0284001,-1.24117 20.5046001,-1.86172 -1.52382,-0.62055 -20.0076701,-1.2411 -21.4026601,-1.86172 -1.395,-0.62056 6.26318,-0.75273 10.57842,-1.0477"
       title="sin(x)"
       id="path526-5"
       sodipodi:nodetypes="cscscscc" />
    <path
       style="fill:none;stroke:#000000;stroke-width:1;stroke-dasharray:1, 1;stroke-dashoffset:0;stroke-opacity:1"
       d="m -16.94228,148.92187 c 10.2959201,-0.62056 12.9159901,-1.24114 3.0338,-1.86171 -9.88214,-0.62056 -17.53182,-1.24112 -8.85765,-1.86169 8.67431,-0.62055 20.7387501,-1.24116 13.9695801,-1.86171 -6.7691801,-0.62055 -22.2788601,-1.24111 -17.9586701,-1.86166 4.32001,-0.62062 22.0284101,-1.24117 20.5046001,-1.86172 -1.52382,-0.62055 -20.0076601,-1.24111 -21.4026601,-1.86172 -1.395,-0.62056 6.26319,-0.75273 10.57842,-1.04771"
       title="sin(x)"
       id="path526-1-55"
       sodipodi:nodetypes="cscscscc" />
    <path
       style="fill:none;stroke:#000000;stroke-width:1;stroke-dasharray:1, 1;stroke-dashoffset:0;stroke-opacity:1"
       d="m -16.6565,161.17886 c 10.2959201,-0.62057 12.9159901,-1.24114 3.0338,-1.86171 -9.88215,-0.62056 -17.53183,-1.24112 -8.85765,-1.86169 8.6743,-0.62055 20.7387501,-1.24116 13.9695701,-1.86171 -6.7691801,-0.62055 -22.2788501,-1.24111 -17.9586701,-1.86166 4.32001,-0.62062 22.0284101,-1.24117 20.5046001,-1.86172 -1.52381,-0.62055 -20.0076601,-1.24111 -21.4026601,-1.86172 -1.39499,-0.62056 6.26319,-0.75273 10.57843,-1.04771"
       title="sin(x)"
       id="path526-3-8"
       sodipodi:nodetypes="cscscscc" />
    <path
       style="fill:none;stroke:#000000;stroke-width:1;stroke-dasharray:1, 1;stroke-dashoffset:0;stroke-opacity:1"
       d="m -16.38449,173.37898 c 10.2959201,-0.62056 12.9159901,-1.24113 3.0338,-1.8617 -9.88214,-0.62056 -17.53183,-1.24113 -8.85765,-1.86169 8.67431,-0.62055 20.7387501,-1.24116 13.9695801,-1.86171 -6.7691801,-0.62056 -22.2788601,-1.24111 -17.9586701,-1.86167 4.32001,-0.62061 22.0284101,-1.24116 20.5046001,-1.86171 -1.52382,-0.62055 -20.0076601,-1.2411 -21.4026601,-1.86172 -1.395,-0.62056 6.26319,-0.75273 10.57842,-1.04771"
       title="sin(x)"
       id="path526-1-5-2"
       sodipodi:nodetypes="cscscscc" />
    <path
       style="fill:none;stroke:#000000;stroke-width:1;stroke-dasharray:none;stroke-opacity:1"
       d="m -17.90592,124.36805 c 29.08874,-3.22459 75.214807,52.84527 108.968337,50.43992"
       id="path1456-9"
       sodipodi:nodetypes="cc" />
    <ellipse
       style="fill:#f50000;fill-opacity:1;stroke:none;stroke-width:0.666667;stroke-dasharray:none;stroke-opacity:1"
       id="path2385"
       cx="-16.587233"
       cy="123.11482"
       rx="2.6675739"
       ry="2.7835557" />
    <ellipse
       style="fill:#f50000;fill-opacity:1;stroke:none;stroke-width:0.666667;stroke-dasharray:none;stroke-opacity:1"
       id="path2385-8"
       cx="90.753624"
       cy="124.5066"
       rx="2.6675739"
       ry="2.7835557" />
    <path
       style="fill:none;fill-opacity:1;stroke:#000000;stroke-width:0.47;stroke-dasharray:none;stroke-dashoffset:0;stroke-opacity:1;marker-start:url(#Arrow3);marker-end:url(#Arrow3)"
       d="m 74.246407,127.78814 0.33152,47.08046 z"
       id="path2619"
       sodipodi:nodetypes="ccc" />
    <path
       style="fill:none;fill-opacity:1;stroke:#000000;stroke-width:0.47;stroke-dasharray:none;stroke-dashoffset:0;stroke-opacity:1;marker-start:url(#Arrow3-5);marker-end:url(#Arrow3-5)"
       d="m 31.630314,117.16882 -47.08046,0.33152 z"
       id="path2619-3"
       sodipodi:nodetypes="ccc" />
    <path
       style="fill:none;fill-opacity:1;stroke:#000000;stroke-width:0.542579;stroke-linecap:square;stroke-dasharray:none;stroke-dashoffset:0;stroke-opacity:1;marker-start:url(#Stop);marker-end:url(#Stop)"
       d="M 89.560657,191.84792 32.762048,191.52713 Z"
       id="path2619-3-2"
       sodipodi:nodetypes="ccc" />
    <path
       style="fill:none;fill-opacity:1;stroke:#000000;stroke-width:0.542579;stroke-linecap:square;stroke-dasharray:none;stroke-dashoffset:0;stroke-opacity:1;marker-start:url(#Stop-4);marker-end:url(#Stop-4)"
       d="m -16.179709,191.31873 50.106585,0.16869 z"
       id="path2619-3-2-8"
       sodipodi:nodetypes="ccc" />
    <text
       xml:space="preserve"
       style="font-weight:bold;font-size:11.2889px;font-family:'.Al Bayan PUA';-inkscape-font-specification:'.Al Bayan PUA Bold';fill:#f50000;fill-opacity:1;stroke:none;stroke-width:0.5;stroke-dasharray:none;stroke-dashoffset:0;stroke-opacity:1"
       x="5.5865798"
       y="115.12762"
       id="text3237"><tspan
         sodipodi:role="line"
         id="tspan3235"
         style="font-style:normal;font-variant:normal;font-weight:normal;font-stretch:normal;font-size:11.2889px;font-family:sans-serif;-inkscape-font-specification:'sans-serif, Normal';font-variant-ligatures:normal;font-variant-caps:normal;font-variant-numeric:normal;font-variant-east-asian:normal;fill:#f50000;fill-opacity:1;stroke:none;stroke-width:0.5"
         x="5.5865798"
         y="115.12762"
         dx="0 0 0 0 0 0 0 0 0 0 0 -0.22228087">V<tspan
   style="font-style:normal;font-variant:normal;font-weight:normal;font-stretch:normal;font-size:3.52778px;font-family:sans-serif;-inkscape-font-specification:'sans-serif, Normal';font-variant-ligatures:normal;font-variant-caps:normal;font-variant-numeric:normal;font-variant-east-asian:normal"
   id="tspan3503">Horizontal</tspan>?</tspan></text>
    <text
       xml:space="preserve"
       style="font-weight:bold;font-size:11.2889px;font-family:'.Al Bayan PUA';-inkscape-font-specification:'.Al Bayan PUA Bold';fill:#000000;fill-opacity:1;stroke:none;stroke-width:0.5;stroke-dasharray:none;stroke-dashoffset:0;stroke-opacity:1"
       x="54.642204"
       y="150.98372"
       id="text3237-2"><tspan
         sodipodi:role="line"
         id="tspan3235-2"
         style="font-style:normal;font-variant:normal;font-weight:normal;font-stretch:normal;font-size:11.2889px;font-family:sans-serif;-inkscape-font-specification:'sans-serif, Normal';font-variant-ligatures:normal;font-variant-caps:normal;font-variant-numeric:normal;font-variant-east-asian:normal;fill:#000000;fill-opacity:1;stroke:none;stroke-width:0.5"
         x="54.642204"
         y="150.98372">V<tspan
   style="font-style:normal;font-variant:normal;font-weight:normal;font-stretch:normal;font-size:3.52778px;font-family:sans-serif;-inkscape-font-specification:'sans-serif, Normal';font-variant-ligatures:normal;font-variant-caps:normal;font-variant-numeric:normal;font-variant-east-asian:normal;fill:#000000;fill-opacity:1"
   id="tspan3445">Climb</tspan></tspan></text>
    <text
       xml:space="preserve"
       style="font-weight:bold;font-size:11.2889px;font-family:'.Al Bayan PUA';-inkscape-font-specification:'.Al Bayan PUA Bold';fill:#000000;fill-opacity:1;stroke:none;stroke-width:0.5;stroke-dasharray:none;stroke-dashoffset:0;stroke-opacity:1"
       x="21.821627"
       y="202.12462"
       id="text3237-2-7"><tspan
         sodipodi:role="line"
         id="tspan3235-2-1"
         style="font-style:normal;font-variant:normal;font-weight:normal;font-stretch:normal;font-size:11.2889px;font-family:sans-serif;-inkscape-font-specification:'sans-serif, Normal';font-variant-ligatures:normal;font-variant-caps:normal;font-variant-numeric:normal;font-variant-east-asian:normal;fill:#000000;fill-opacity:1;stroke:none;stroke-width:0.5"
         x="21.821627"
         y="202.12462"
         dx="0">D<tspan
   style="font-style:normal;font-variant:normal;font-weight:normal;font-stretch:normal;font-size:3.52778px;font-family:sans-serif;-inkscape-font-specification:'sans-serif, Normal';font-variant-ligatures:normal;font-variant-caps:normal;font-variant-numeric:normal;font-variant-east-asian:normal;fill:#000000;fill-opacity:1"
   id="tspan3445-9">Horizontal</tspan></tspan></text>
    <text
       xml:space="preserve"
       style="font-weight:bold;font-size:11.2889px;font-family:'.Al Bayan PUA';-inkscape-font-specification:'.Al Bayan PUA Bold';fill:#f50000;fill-opacity:1;stroke:none;stroke-width:0.5;stroke-dasharray:none;stroke-dashoffset:0;stroke-opacity:1"
       x="115.83437"
       y="147.80486"
       id="text3237-2-6"><tspan
         sodipodi:role="line"
         id="tspan3235-2-3"
         style="font-style:normal;font-variant:normal;font-weight:normal;font-stretch:normal;font-size:11.2889px;font-family:sans-serif;-inkscape-font-specification:'sans-serif, Normal';font-variant-ligatures:normal;font-variant-caps:normal;font-variant-numeric:normal;font-variant-east-asian:normal;fill:#f50000;fill-opacity:1;stroke:none;stroke-width:0.5"
         x="115.83437"
         y="147.80486" /></text>
    <path
       sodipodi:type="star"
       style="fill:#000000;fill-opacity:1;stroke:none;stroke-width:0.470001;stroke-dasharray:none;stroke-dashoffset:0;stroke-opacity:1"
       id="path3615"
       inkscape:flatsided="false"
       sodipodi:sides="3"
       sodipodi:cx="143.77817"
       sodipodi:cy="185.91367"
       sodipodi:r1="4.6311965"
       sodipodi:r2="2.315598"
       sodipodi:arg1="0.49934672"
       sodipodi:arg2="1.5465443"
       inkscape:rounded="0"
       inkscape:randomized="0"
       d="m 147.84387,188.13132 -4.00955,0.0973 -4.00955,0.0973 1.92054,-3.521 1.92055,-3.52101 2.08901,3.42375 z"
       inkscape:transform-center-x="-0.056150693"
       inkscape:transform-center-y="-1.1088314"
       transform="translate(-53.884229,-1.970541)" />
    <path
       sodipodi:type="star"
       style="fill:#000000;fill-opacity:1;stroke:none;stroke-width:0.470001;stroke-dasharray:none;stroke-dashoffset:0;stroke-opacity:1"
       id="path3615-5"
       inkscape:flatsided="false"
       sodipodi:sides="3"
       sodipodi:cx="143.77817"
       sodipodi:cy="185.91367"
       sodipodi:r1="4.6311965"
       sodipodi:r2="2.315598"
       sodipodi:arg1="0.49934672"
       sodipodi:arg2="1.5465443"
       inkscape:rounded="0"
       inkscape:randomized="0"
       d="m 147.84387,188.13132 -4.00955,0.0973 -4.00955,0.0973 1.92054,-3.521 1.92055,-3.52101 2.08901,3.42375 z"
       inkscape:transform-center-x="-0.056150693"
       inkscape:transform-center-y="-1.1088314"
       transform="translate(52.507207,-1.2313126)" />
    <path
       sodipodi:type="star"
       style="fill:#000000;fill-opacity:1;stroke:none;stroke-width:0.470001;stroke-dasharray:none;stroke-dashoffset:0;stroke-opacity:1"
       id="path3617"
       inkscape:flatsided="false"
       sodipodi:sides="3"
       sodipodi:cx="40.657066"
       sodipodi:cy="180.36954"
       sodipodi:r1="3.8053646"
       sodipodi:r2="1.9026822"
       sodipodi:arg1="0.5070985"
       sodipodi:arg2="1.5542961"
       inkscape:rounded="0"
       inkscape:randomized="0"
       d="m 43.983554,182.21759 -3.295094,0.0544 -3.295094,0.0544 1.600457,-2.88083 1.600457,-2.88082 1.694637,2.82645 z"
       inkscape:transform-center-x="-0.031392837"
       inkscape:transform-center-y="-0.92402649"
       transform="translate(-56.841107,3.2039946)" />
  </g>
</svg>
